
<svg width="24px" height="24px" viewBox="0 0 24 24" version="1.1" xmlns="http://www.w3.org/2000/svg" xmlns:xlink="http://www.w3.org/1999/xlink">
    <!-- Generator: Sketch 46.2 (44496) - http://www.bohemiancoding.com/sketch -->

            <g id="instagram">
                <path fill="#4d4d4d" d="M12,0 C8.74097832,0 8.3323264,0.0138138818 7.05244898,0.0722132578 C5.7751438,0.130469732 4.90287034,0.333343257 4.13953581,0.629960642 C3.35043129,0.936628817 2.68122149,1.34694874 2.0141076,2.01406396 C1.3469937,2.68122682 0.936674592,3.35043794 0.630007026,4.13954402 C0.333342595,4.90283244 0.130517107,5.77515526 0.0722131144,7.05241535 C0.0138138543,8.33234294 0,8.74099567 0,12.0000238 C0,15.2590043 0.0138138543,15.6676571 0.0722131144,16.9475847 C0.130517107,18.2248447 0.333342595,19.0971676 0.630007026,19.860456 C0.936674592,20.6495621 1.3469937,21.3187732 2.0141076,21.985936 C2.68122149,22.6530513 3.35043129,23.0633712 4.13953581,23.3700394 C4.90287034,23.6666567 5.7751438,23.8695303 7.05244898,23.9277867 C8.3323264,23.9861861 8.74097832,24 12,24 C15.2590217,24 15.6676736,23.9861861 16.947551,23.9277867 C18.2248562,23.8695303 19.0971297,23.6666567 19.8604642,23.3700394 C20.6495687,23.0633712 21.3187785,22.6530513 21.9858924,21.985936 C22.6530063,21.3187732 23.0633254,20.6495621 23.369993,19.860456 C23.6666574,19.0971676 23.8694829,18.2248447 23.9277869,16.9475847 C23.9861861,15.6676571 24,15.2590043 24,12.0000238 C24,8.74099567 23.9861861,8.33234294 23.9277869,7.05241535 C23.8694829,5.77515526 23.6666574,4.90283244 23.369993,4.13954402 C23.0633254,3.35043794 22.6530063,2.68122682 21.9858924,2.01406396 C21.3187785,1.34694874 20.6495687,0.936628817 19.8604642,0.629960642 C19.0971297,0.333343257 18.2248562,0.130469732 16.947551,0.0722132578 C15.6676736,0.0138138818 15.2590217,0 12,0 M12,2.1621583 C15.2041473,2.1621583 15.5836473,2.17440026 16.8489963,2.23213276 C18.0189821,2.28548292 18.6544194,2.48097316 19.0772663,2.64531072 C19.6373466,2.86299845 20.037091,3.12303286 20.4570322,3.54297487 C20.8769257,3.96286924 21.1370072,4.3626144 21.3546945,4.92274348 C21.5189841,5.34559117 21.714474,5.9809821 21.7678717,7.15097025 C21.8256041,8.41632182 21.8377984,8.79587013 21.8377984,12.0000238 C21.8377984,15.2041299 21.8256041,15.5836782 21.7678717,16.8490298 C21.714474,18.0190179 21.5189841,18.6544088 21.3546945,19.0772565 C21.1370072,19.6373856 20.8769257,20.0371308 20.4570322,20.4570251 C20.037091,20.8769671 19.6373466,21.1370016 19.0772663,21.3546893 C18.6544194,21.5190268 18.0189821,21.7145171 16.8489963,21.7678672 C15.5838378,21.8255997 15.2043379,21.8378417 12,21.8378417 C8.79566213,21.8378417 8.41616221,21.8255997 7.15100369,21.7678672 C5.98101786,21.7145171 5.34558056,21.5190268 4.92273371,21.3546893 C4.36265337,21.1370016 3.96290901,20.8769671 3.54296784,20.4570251 C3.1230743,20.0371308 2.86299276,19.6373856 2.64530547,19.0772565 C2.48101587,18.6544088 2.28552602,18.0190179 2.23212833,16.8490298 C2.17439594,15.5836782 2.16220164,15.2041299 2.16220164,12.0000238 C2.16220164,8.79587013 2.17439594,8.41632182 2.23212833,7.15097025 C2.28552602,5.9809821 2.48101587,5.34559117 2.64530547,4.92274348 C2.86299276,4.3626144 3.1230743,3.96286924 3.54296784,3.54297487 C3.96290901,3.12303286 4.36265337,2.86299845 4.92273371,2.64531072 C5.34558056,2.48097316 5.98101786,2.28548292 7.15095605,2.23213276 C8.41635275,2.17440026 8.79585267,2.1621583 12,2.1621583" id="Fill-1"></path>
                <path fill="#4d4d4d" d="M12,16.0640758 C9.75549532,16.0640758 7.93591574,14.2445376 7.93591574,12.0000242 C7.93591574,9.75546245 9.75549532,7.93592423 12,7.93592423 C14.2445047,7.93592423 16.0640359,9.75546245 16.0640359,12.0000242 C16.0640359,14.2445376 14.2445047,16.0640758 12,16.0640758 M12,5.73913043 C8.54223254,5.73913043 5.73913043,8.54219498 5.73913043,12.0000242 C5.73913043,15.457805 8.54223254,18.2608696 12,18.2608696 C15.4577675,18.2608696 18.2608696,15.457805 18.2608696,12.0000242 C18.2608696,8.54219498 15.4577675,5.73913043 12,5.73913043"></path>
                <path fill="#4d4d4d" d="M19.826087,5.47826087 C19.826087,6.19865092 19.2420957,6.7826087 18.5217607,6.7826087 C17.8013826,6.7826087 17.2173913,6.19865092 17.2173913,5.47826087 C17.2173913,4.75787082 17.8013826,4.17391304 18.5217607,4.17391304 C19.2420957,4.17391304 19.826087,4.75787082 19.826087,5.47826087"></path>
            </g>

</svg>
