<svg id="Layer_1" data-name="Layer 1" xmlns="http://www.w3.org/2000/svg" viewBox="0 0 924.68 429.49"><defs><style>.cls-1{fill:#ffffff;}</style></defs><title>logo-2</title><path class="cls-1" d="M208.8,428.05h-7.89V371.6h7.89Z"/><path class="cls-1" d="M278.25,416.73h.16V371.6h7.89v56.45h-10L246.51,382h-.16v46.08h-7.89V371.6h10.29Z"/><path class="cls-1" d="M335.73,428.05h-7.89V378.54h-18.1V371.6h44.09v6.94h-18.1Z"/><path class="cls-1" d="M385.16,421h29.5v7H377.27V371.6h36.2v6.94H385.16v16.9h26.63v6.78H385.16Z"/><path class="cls-1" d="M449,428.05h-7.9V371.6h18.1a34.65,34.65,0,0,1,7.74.84,19.33,19.33,0,0,1,6.42,2.67,13.1,13.1,0,0,1,4.34,4.82,15.41,15.41,0,0,1,1.6,7.3,13.59,13.59,0,0,1-3.83,10,17.81,17.81,0,0,1-9.89,4.86l15.79,25.91h-9.57l-14.35-25.11H449Zm0-31.73h9.09a26.36,26.36,0,0,0,5.18-.48,13.35,13.35,0,0,0,4.19-1.55,8.31,8.31,0,0,0,2.83-2.79,8.22,8.22,0,0,0-2.75-11.29,12.12,12.12,0,0,0-4-1.47,26.22,26.22,0,0,0-4.86-.44H449Z"/><path class="cls-1" d="M513.85,428.05H506V371.6h7.89Z"/><path class="cls-1" d="M600.36,399.75a31,31,0,0,1-2.27,12,28.76,28.76,0,0,1-6.26,9.41,28.07,28.07,0,0,1-9.49,6.13,31.88,31.88,0,0,1-12,2.2,31.53,31.53,0,0,1-11.92-2.2,27.6,27.6,0,0,1-15.67-15.54,33.62,33.62,0,0,1,0-24.08,27.13,27.13,0,0,1,6.22-9.33,28.4,28.4,0,0,1,9.45-6,32.31,32.31,0,0,1,11.92-2.15,32.67,32.67,0,0,1,12,2.15,28.27,28.27,0,0,1,9.49,6,27.8,27.8,0,0,1,6.26,9.33A31.25,31.25,0,0,1,600.36,399.75Zm-8.53,0a25,25,0,0,0-1.52-8.73,22.24,22.24,0,0,0-4.3-7.22,20.19,20.19,0,0,0-6.74-4.9,22.66,22.66,0,0,0-17.7,0,19.64,19.64,0,0,0-6.7,4.9A22.7,22.7,0,0,0,550.6,391a25,25,0,0,0-1.51,8.73,25.63,25.63,0,0,0,1.51,8.85,21.6,21.6,0,0,0,4.31,7.21,20,20,0,0,0,6.7,4.83,21.16,21.16,0,0,0,8.77,1.75,21.74,21.74,0,0,0,8.85-1.75,19.87,19.87,0,0,0,6.78-4.83,21.58,21.58,0,0,0,4.3-7.21A25.64,25.64,0,0,0,591.83,399.75Z"/><path class="cls-1" d="M634.88,428.05H627V371.6h18.1a34.56,34.56,0,0,1,7.73.84,19.33,19.33,0,0,1,6.42,2.67,13.1,13.1,0,0,1,4.34,4.82,15.29,15.29,0,0,1,1.6,7.3,13.59,13.59,0,0,1-3.83,10,17.81,17.81,0,0,1-9.89,4.86l15.79,25.91h-9.57l-14.35-25.11h-8.45Zm0-31.73H644a26.29,26.29,0,0,0,5.18-.48,13.26,13.26,0,0,0,4.19-1.55A8.66,8.66,0,0,0,656.17,383a8.13,8.13,0,0,0-2.75-2.75,12.12,12.12,0,0,0-4-1.47,26.22,26.22,0,0,0-4.86-.44h-9.65Z"/><path class="cls-1" d="M719.87,382.05a12.63,12.63,0,0,0-4.54-3.79,14,14,0,0,0-6.46-1.47,15.3,15.3,0,0,0-3.87.51,10.7,10.7,0,0,0-3.54,1.68,9.28,9.28,0,0,0-2.6,2.87,8.07,8.07,0,0,0-1,4.11,7.48,7.48,0,0,0,.91,3.86,8.18,8.18,0,0,0,2.48,2.63,15.65,15.65,0,0,0,3.66,1.84q2.12.75,4.51,1.55,2.87.89,5.82,2a20.68,20.68,0,0,1,5.34,3A13.47,13.47,0,0,1,726,412.35a16.64,16.64,0,0,1-1.63,7.61A15.61,15.61,0,0,1,720,425.3a18.36,18.36,0,0,1-6.26,3.15,25.85,25.85,0,0,1-7.29,1,26.68,26.68,0,0,1-10.33-2.07,20.59,20.59,0,0,1-8.25-6.14l6.14-5.19a15.29,15.29,0,0,0,12.6,6.62,14.45,14.45,0,0,0,4-.56,11.15,11.15,0,0,0,3.62-1.75,9.7,9.7,0,0,0,2.67-3,8.59,8.59,0,0,0,1-4.35,7.83,7.83,0,0,0-1.08-4.26,9.29,9.29,0,0,0-2.91-2.91,19.15,19.15,0,0,0-4.26-2c-1.62-.55-3.34-1.12-5.14-1.71a44.59,44.59,0,0,1-5.35-1.95,18.68,18.68,0,0,1-4.7-2.95,13.66,13.66,0,0,1-3.35-4.43,14.92,14.92,0,0,1-1.28-6.54,14.54,14.54,0,0,1,1.72-7.25,15.51,15.51,0,0,1,4.46-5,18.84,18.84,0,0,1,6.22-2.92,27.24,27.24,0,0,1,7-.91,24.29,24.29,0,0,1,9.25,1.75,18.33,18.33,0,0,1,6.93,4.71Z"/><polygon class="cls-1" points="0 0 0 302.68 29.94 302.68 29.94 212.2 98.46 302.68 134.05 302.68 58.54 203.89 127.06 109.43 92.14 109.43 29.94 196.57 29.94 0 0 0"/><path class="cls-1" d="M176.62,302.68H146.68V165c0-44.23,29.94-55.54,56.22-55.54h11.64V137.7H202.9c-20,0-26.61,12.64-26.61,27.61.33-.34.33,137.37.33,137.37"/><path class="cls-1" d="M419.76,302.68H389.83V277.73a101.14,101.14,0,1,1,29.93-71.85Zm-101.11-170c-39.58,0-71.18,30.94-71.18,73.17,0,42.58,32.27,73.18,71.18,73.18,39.58,0,71.18-30.93,71.18-73.18s-31.94-73.17-71.18-73.17"/><path  class="cls-1" d="M465.67,37.25a18.3,18.3,0,1,1-18.31,18.29,18.46,18.46,0,0,1,18.31-18.29m-15,72.17h29.94V303H450.69Z"/><rect class="cls-1" x="511.89" width="29.94" height="302.68"/><rect class="cls-1" x="573.43" width="29.94" height="302.68"/><path class="cls-1" d="M804.93,219.86h-144c6,35.26,34.59,59.2,70.51,59.2,49.56,0,64.53-41.57,64.53-41.57h31.6S807.92,307,731.09,307c-56.88,0-101.45-44.91-101.45-101.45,0-56.87,44.91-101.11,101.45-101.11,59.87,0,99.12,47.89,99.12,90.8.34,15.64-9,24.62-25.28,24.62m-2.66-27.28c-6-35.25-33.92-59.54-70.51-59.54-35.26,0-64.53,24-70.51,59.54Z"/><path class="cls-1" d="M886.76,302.68H856.82V165c0-44.23,29.94-55.54,56.22-55.54h11.64V137.7H913c-20,0-26.61,12.64-26.61,27.61V302.68Z"/></svg>