<?xml version="1.0" encoding="utf-8"?>
<!-- Generator: Adobe Illustrator 16.0.0, SVG Export Plug-In . SVG Version: 6.00 Build 0)  -->
<!DOCTYPE svg PUBLIC "-//W3C//DTD SVG 1.1//EN" "http://www.w3.org/Graphics/SVG/1.1/DTD/svg11.dtd">
<svg version="1.1" id="Layer_1" xmlns="http://www.w3.org/2000/svg" xmlns:xlink="http://www.w3.org/1999/xlink" x="0px" y="0px"
	 width="126px" height="15px" viewBox="0 0 126 15" enable-background="new 0 0 126 15" xml:space="preserve">
<g>
	<path d="M1.57,5.484c0-2.816,0-3.316-0.036-3.895C1.496,0.977,1.353,0.688,0.759,0.559c-0.145-0.035-0.45-0.055-0.614-0.055
		C0.072,0.504,0,0.469,0,0.398C0,0.289,0.091,0.25,0.29,0.25c0.812,0,1.876,0.059,1.984,0.059c0.164,0,1.208-0.059,1.75-0.059
		c0.198,0,0.288,0.041,0.288,0.148c0,0.07-0.072,0.105-0.145,0.105c-0.126,0-0.235,0.02-0.451,0.055
		C3.229,0.648,3.086,0.957,3.048,1.59C3.013,2.168,3.013,2.668,3.013,5.484v1.082h0.073c0.307-0.344,3.572-3.66,4.221-4.363
		C7.811,1.68,8.28,1.207,8.28,0.902c0-0.215-0.09-0.324-0.234-0.379c-0.09-0.035-0.164-0.068-0.164-0.143
		c0-0.09,0.091-0.127,0.219-0.127c0.359,0,0.92,0.057,1.354,0.057c0.088,0,1.28-0.057,1.732-0.057c0.198,0,0.27,0.039,0.27,0.127
		s-0.036,0.123-0.18,0.123c-0.27,0-0.65,0.094-1.01,0.254c-0.74,0.324-1.139,0.777-1.95,1.551c-0.452,0.434-3.59,3.5-3.968,3.953
		c0.47,0.52,4.222,4.398,4.962,5.086c1.514,1.41,1.821,1.697,2.688,2.059c0.469,0.195,0.992,0.23,1.118,0.23
		s0.236,0.039,0.236,0.109c0,0.09-0.09,0.145-0.398,0.145h-0.92c-0.504,0-0.848,0-1.246-0.035c-0.956-0.09-1.408-0.484-2.182-1.098
		c-0.812-0.674-4.636-4.801-5.502-5.869h-0.09v1.77c0,1.73,0,3.156,0.09,3.914c0.054,0.525,0.162,0.922,0.704,0.992
		c0.252,0.037,0.542,0.07,0.704,0.07c0.107,0,0.144,0.053,0.144,0.109c0,0.09-0.09,0.145-0.29,0.145
		c-0.884,0-1.93-0.055-2.074-0.055c-0.144,0-1.191,0.055-1.731,0.055c-0.198,0-0.288-0.037-0.288-0.145
		c0-0.053,0.036-0.109,0.144-0.109c0.164,0,0.378-0.037,0.542-0.07c0.362-0.07,0.452-0.467,0.524-0.992
		c0.09-0.758,0.09-2.184,0.09-3.914V5.484H1.57z"/>
	<path d="M16.65,8.695c0,2.652,0.072,3.809,0.396,4.131c0.29,0.291,0.759,0.414,2.166,0.414c0.956,0,1.75-0.02,2.183-0.541
		c0.235-0.291,0.416-0.738,0.47-1.082c0.018-0.145,0.054-0.234,0.162-0.234c0.09,0,0.108,0.07,0.108,0.273
		c0,0.195-0.126,1.277-0.271,1.801c-0.126,0.414-0.18,0.488-1.136,0.488c-1.298,0-2.236-0.041-2.994-0.055
		c-0.758-0.035-1.318-0.055-1.84-0.055c-0.072,0-0.378,0.02-0.74,0.02c-0.36,0.018-0.758,0.037-1.028,0.037
		c-0.199,0-0.29-0.037-0.29-0.145c0-0.053,0.036-0.109,0.145-0.109c0.162,0,0.378-0.037,0.54-0.07
		c0.362-0.07,0.452-0.467,0.523-0.992c0.091-0.758,0.091-2.184,0.091-3.914V5.486c0-2.814,0-3.314-0.036-3.893
		c-0.036-0.615-0.181-0.902-0.776-1.033c-0.144-0.037-0.45-0.053-0.614-0.053c-0.071,0-0.144-0.037-0.144-0.107
		c0-0.109,0.09-0.148,0.29-0.148c0.812,0,1.948,0.059,2.038,0.059s1.408-0.059,1.948-0.059c0.199,0,0.289,0.041,0.289,0.148
		c0,0.07-0.071,0.107-0.144,0.107c-0.126,0-0.378,0.02-0.596,0.053c-0.522,0.09-0.666,0.398-0.704,1.033
		C16.65,2.172,16.65,2.672,16.65,5.486V8.695z"/>
	<path d="M24.658,5.484c0-2.816,0-3.316-0.036-3.895c-0.036-0.613-0.18-0.902-0.775-1.031c-0.145-0.035-0.452-0.055-0.614-0.055
		c-0.072,0-0.145-0.035-0.145-0.105c0-0.109,0.091-0.148,0.288-0.148c0.812,0,1.912,0.059,2.076,0.059
		c0.162,0,1.244-0.059,1.786-0.059c0.198,0,0.29,0.041,0.29,0.148c0,0.07-0.074,0.105-0.144,0.105c-0.126,0-0.236,0.02-0.452,0.055
		c-0.488,0.074-0.632,0.398-0.668,1.031c-0.036,0.578-0.036,1.078-0.036,3.895v2.527c0,2.598,0.578,3.715,1.354,4.456
		c0.884,0.828,1.696,0.992,2.725,0.992c1.1,0,2.181-0.525,2.833-1.297c0.83-1.031,1.045-2.561,1.045-4.422V5.486
		c0-2.814,0-3.314-0.037-3.893c-0.035-0.615-0.18-0.902-0.775-1.033c-0.145-0.037-0.453-0.053-0.613-0.053
		c-0.072,0-0.145-0.037-0.145-0.107c0-0.109,0.09-0.146,0.289-0.146c0.812,0,1.805,0.057,1.912,0.057
		c0.127,0,0.975-0.057,1.516-0.057c0.199,0,0.289,0.039,0.289,0.146c0,0.07-0.072,0.107-0.145,0.107
		c-0.125,0-0.236,0.02-0.451,0.053c-0.488,0.111-0.633,0.398-0.668,1.033C35.32,2.172,35.32,2.672,35.32,5.486v1.93
		c0,1.951-0.217,4.115-1.66,5.395c-1.297,1.152-2.651,1.336-3.715,1.336c-0.614,0-2.436-0.07-3.716-1.283
		c-0.884-0.848-1.57-2.113-1.57-4.747V5.484z"/>
	<path d="M41.164,11.438c0.037,1.479,0.217,1.949,0.705,2.094c0.342,0.09,0.74,0.105,0.902,0.105c0.09,0,0.143,0.039,0.143,0.109
		c0,0.109-0.107,0.145-0.326,0.145c-1.027,0-1.75-0.055-1.91-0.055c-0.164,0-0.92,0.055-1.732,0.055c-0.18,0-0.289-0.02-0.289-0.145
		c0-0.07,0.055-0.109,0.145-0.109c0.145,0,0.471-0.016,0.74-0.105c0.451-0.125,0.541-0.648,0.541-2.293l0.02-10.336
		C40.101,0.199,40.154,0,40.3,0c0.145,0,0.449,0.398,0.633,0.578c0.27,0.305,2.957,3.211,5.734,6.188
		c1.787,1.91,3.752,4.115,4.33,4.709L50.8,2.311c-0.018-1.172-0.145-1.57-0.703-1.709c-0.326-0.074-0.74-0.094-0.885-0.094
		c-0.127,0-0.145-0.051-0.145-0.125c0-0.109,0.145-0.129,0.363-0.129c0.811,0,1.678,0.059,1.875,0.059s0.793-0.059,1.535-0.059
		c0.197,0,0.322,0.02,0.322,0.129c0,0.074-0.07,0.125-0.197,0.125c-0.09,0-0.217,0-0.434,0.053
		c-0.596,0.127-0.666,0.523-0.666,1.611L51.83,12.736c0,1.193-0.037,1.287-0.164,1.287c-0.143,0-0.359-0.201-1.314-1.156
		c-0.199-0.184-2.797-2.832-4.709-4.891c-2.094-2.254-4.131-4.527-4.707-5.176L41.164,11.438z"/>
	<path d="M57.765,5.484c0-2.816,0-3.316-0.039-3.895c-0.035-0.613-0.178-0.902-0.773-1.031c-0.145-0.035-0.453-0.055-0.611-0.055
		c-0.074,0-0.146-0.035-0.146-0.105c0-0.109,0.09-0.148,0.287-0.148c0.812,0,1.949,0.059,2.041,0.059
		c0.215,0,1.354-0.059,2.434-0.059c1.787,0,5.088-0.16,7.237,2.059c0.902,0.938,1.75,2.438,1.75,4.582
		c0,2.273-0.938,4.023-1.949,5.086c-0.773,0.816-2.398,2.078-5.465,2.078c-0.777,0-1.732-0.055-2.508-0.109
		c-0.795-0.055-1.408-0.109-1.498-0.109c-0.037,0-0.342,0-0.723,0.02c-0.359,0-0.775,0.035-1.047,0.035
		c-0.197,0-0.289-0.035-0.289-0.145c0-0.055,0.035-0.109,0.145-0.109c0.164,0,0.379-0.035,0.541-0.07
		c0.361-0.07,0.451-0.469,0.521-0.992c0.092-0.758,0.092-2.184,0.092-3.914V5.484H57.765z M59.279,7.434
		c0,1.91,0.018,3.57,0.035,3.914c0.018,0.451,0.055,1.172,0.199,1.373c0.232,0.344,0.938,0.721,3.064,0.721
		c1.68,0,3.229-0.613,4.295-1.68c0.938-0.922,1.441-2.652,1.441-4.307c0-2.293-0.992-3.775-1.73-4.547
		c-1.695-1.791-3.754-2.041-5.899-2.041c-0.363,0-1.031,0.059-1.172,0.127c-0.164,0.074-0.217,0.164-0.217,0.361
		c-0.018,0.613-0.018,2.457-0.018,3.844V7.434z"/>
	<path d="M74.125,5.484c0-2.816,0-3.316-0.041-3.895c-0.035-0.613-0.176-0.902-0.773-1.031c-0.145-0.035-0.453-0.055-0.613-0.055
		c-0.07,0-0.145-0.035-0.145-0.105c0-0.109,0.09-0.148,0.291-0.148c0.414,0,0.9,0,1.295,0.02l0.742,0.041
		c0.125,0,3.715,0,4.129-0.02c0.344-0.021,0.633-0.055,0.777-0.092c0.09-0.02,0.16-0.09,0.25-0.09c0.059,0,0.074,0.07,0.074,0.16
		c0,0.129-0.09,0.344-0.145,0.848c-0.02,0.186-0.055,0.977-0.09,1.193c-0.016,0.09-0.055,0.201-0.129,0.201
		c-0.105,0-0.139-0.09-0.139-0.234c0-0.129-0.02-0.434-0.111-0.648c-0.123-0.289-0.303-0.508-1.281-0.613
		c-0.305-0.037-2.273-0.055-2.469-0.055c-0.072,0-0.109,0.055-0.109,0.18v4.98c0,0.123,0.016,0.18,0.109,0.18
		c0.23,0,2.451,0,2.869-0.035c0.43-0.041,0.686-0.074,0.848-0.254c0.125-0.145,0.201-0.234,0.271-0.234
		c0.053,0,0.09,0.035,0.09,0.145c0,0.105-0.09,0.412-0.145,1.008c-0.035,0.363-0.07,1.031-0.07,1.154c0,0.145,0,0.346-0.125,0.346
		c-0.094,0-0.127-0.074-0.127-0.164c0-0.182,0-0.361-0.07-0.593c-0.074-0.256-0.236-0.562-0.938-0.633
		c-0.488-0.055-2.275-0.09-2.582-0.09c-0.09,0-0.123,0.053-0.123,0.123v1.59c0,0.615-0.021,2.705,0,3.086
		c0.049,1.242,0.324,1.477,2.09,1.477c0.467,0,1.266,0,1.734-0.201c0.467-0.195,0.684-0.557,0.811-1.295
		c0.037-0.201,0.07-0.273,0.16-0.273c0.111,0,0.111,0.146,0.111,0.273c0,0.145-0.145,1.373-0.234,1.75
		c-0.125,0.467-0.275,0.467-0.977,0.467c-1.352,0-2.344-0.039-3.047-0.053c-0.703-0.037-1.137-0.053-1.406-0.053
		c-0.035,0-0.344,0-0.723,0.02c-0.359,0-0.777,0.035-1.045,0.035c-0.201,0-0.291-0.035-0.291-0.145c0-0.055,0.037-0.109,0.145-0.109
		c0.164,0,0.379-0.035,0.543-0.07c0.359-0.07,0.449-0.469,0.523-0.992c0.09-0.758,0.09-2.184,0.09-3.914v-3.18H74.125z"/>
	<path d="M85.129,5.484c0-2.816,0-3.316-0.035-3.895c-0.041-0.613-0.182-0.902-0.779-1.031c-0.145-0.035-0.449-0.055-0.613-0.055
		c-0.07,0-0.145-0.035-0.145-0.105c0-0.109,0.09-0.148,0.291-0.148c0.811,0,1.949,0.059,2.041,0.059
		c0.199,0,1.568-0.059,2.127-0.059c1.135,0,2.344,0.113,3.299,0.797c0.451,0.324,1.246,1.211,1.246,2.453
		c0,1.336-0.559,2.668-2.184,4.168c1.477,1.891,2.703,3.5,3.754,4.617c0.973,1.029,1.746,1.227,2.199,1.301
		c0.346,0.051,0.596,0.051,0.705,0.051c0.09,0,0.16,0.055,0.16,0.109c0,0.109-0.107,0.145-0.43,0.145h-1.283
		c-1.012,0-1.459-0.09-1.93-0.344c-0.777-0.414-1.41-1.297-2.438-2.648c-0.758-0.996-1.605-2.203-1.965-2.672
		c-0.074-0.07-0.127-0.109-0.234-0.109L86.699,8.08c-0.094,0-0.127,0.055-0.127,0.145v0.434c0,1.73,0,3.156,0.094,3.914
		c0.049,0.525,0.16,0.922,0.703,0.992c0.25,0.037,0.648,0.07,0.809,0.07c0.109,0,0.145,0.053,0.145,0.109
		c0,0.09-0.09,0.145-0.291,0.145c-0.988,0-2.127-0.055-2.213-0.055c-0.021,0-1.156,0.055-1.701,0.055
		c-0.197,0-0.287-0.037-0.287-0.145c0-0.053,0.037-0.109,0.141-0.109c0.164,0,0.379-0.037,0.543-0.07
		c0.359-0.07,0.449-0.467,0.523-0.992c0.09-0.758,0.09-2.184,0.09-3.914V5.484H85.129z M86.572,7.055
		c0,0.09,0.035,0.164,0.127,0.215c0.271,0.164,1.098,0.289,1.895,0.289c0.43,0,0.938-0.055,1.352-0.34
		c0.631-0.438,1.102-1.41,1.102-2.781c0-2.254-1.191-3.611-3.121-3.611c-0.543,0-1.033,0.055-1.211,0.115
		c-0.086,0.035-0.143,0.105-0.143,0.213V7.055L86.572,7.055z"/>
	<path d="M98.732,5.484c0-2.816,0-3.316-0.037-3.895c-0.037-0.613-0.18-0.902-0.775-1.031c-0.146-0.035-0.453-0.055-0.613-0.055
		c-0.074,0-0.148-0.035-0.148-0.105c0-0.109,0.094-0.148,0.291-0.148c0.812,0,1.951,0.059,2.041,0.059
		c0.434,0,1.135-0.059,1.967-0.059c2.959,0,3.607,1.805,3.607,2.711c0,1.477-0.85,2.363-1.697,3.246
		c1.336,0.414,3.123,1.695,3.123,3.805c0,1.93-1.516,3.934-4.602,3.934c-0.197,0-0.775-0.041-1.297-0.055
		c-0.523-0.035-1.027-0.055-1.102-0.055c-0.037,0-0.34,0-0.723,0.02c-0.359,0-0.773,0.037-1.043,0.037
		c-0.199,0-0.289-0.037-0.289-0.145c0-0.053,0.035-0.109,0.145-0.109c0.16,0,0.377-0.037,0.539-0.07
		c0.363-0.07,0.453-0.467,0.523-0.992c0.09-0.758,0.09-2.184,0.09-3.914V5.484L98.732,5.484z M100.176,5.879
		c0,0.129,0.035,0.164,0.123,0.199c0.109,0.02,0.434,0.074,1.102,0.074c1.008,0,1.262-0.035,1.641-0.469
		c0.379-0.43,0.648-1.086,0.648-1.824c0-1.496-0.668-3.102-2.434-3.102c-0.199,0-0.578,0.02-0.867,0.09
		c-0.16,0.037-0.215,0.094-0.215,0.201v4.83H100.176z M100.176,7.793c0,1.391,0,3.623,0.016,3.898
		c0.053,0.881,0.053,1.135,0.615,1.406c0.486,0.232,1.266,0.273,1.59,0.273c0.971,0,2.541-0.527,2.541-2.566
		c0-1.078-0.361-2.649-1.75-3.605c-0.615-0.418-1.066-0.469-1.496-0.523c-0.234-0.037-1.135-0.037-1.41-0.037
		c-0.07,0-0.105,0.037-0.105,0.123V7.793z"/>
	<path d="M112.367,8.66c0,1.73,0,3.156,0.09,3.914c0.055,0.523,0.164,0.922,0.709,0.992c0.25,0.035,0.648,0.07,0.809,0.07
		c0.109,0,0.143,0.055,0.143,0.109c0,0.09-0.09,0.145-0.291,0.145c-0.992,0-2.127-0.055-2.217-0.055s-1.227,0.055-1.766,0.055
		c-0.201,0-0.291-0.035-0.291-0.145c0-0.055,0.035-0.109,0.145-0.109c0.16,0,0.379-0.035,0.539-0.07
		c0.361-0.07,0.455-0.469,0.525-0.992c0.09-0.758,0.09-2.184,0.09-3.914V5.484c0-2.816,0-3.316-0.037-3.895
		c-0.035-0.613-0.217-0.922-0.613-1.012c-0.199-0.055-0.434-0.074-0.559-0.074c-0.074,0-0.145-0.035-0.145-0.105
		c0-0.109,0.09-0.148,0.291-0.148c0.594,0,1.73,0.059,1.82,0.059s1.225-0.059,1.77-0.059c0.201,0,0.291,0.041,0.291,0.148
		c0,0.07-0.074,0.105-0.145,0.105c-0.129,0-0.234,0.02-0.453,0.055c-0.484,0.09-0.633,0.398-0.668,1.031
		c-0.037,0.578-0.037,1.078-0.037,3.895V8.66z"/>
	<path d="M118.793,5.484c0-2.816,0-3.316-0.041-3.895c-0.035-0.613-0.18-0.902-0.773-1.031c-0.145-0.035-0.453-0.055-0.613-0.055
		c-0.074,0-0.145-0.035-0.145-0.105c0-0.109,0.09-0.148,0.291-0.148c0.414,0,0.9,0,1.295,0.02l0.738,0.041
		c0.129,0,3.719,0,4.133-0.02c0.344-0.021,0.629-0.055,0.777-0.092c0.09-0.02,0.16-0.09,0.25-0.09c0.055,0,0.074,0.07,0.074,0.16
		c0,0.129-0.09,0.344-0.145,0.848c-0.02,0.186-0.055,0.977-0.09,1.193c-0.02,0.09-0.055,0.201-0.129,0.201
		c-0.109,0-0.143-0.09-0.143-0.234c0-0.129-0.016-0.434-0.107-0.648c-0.123-0.289-0.307-0.508-1.281-0.613
		c-0.309-0.037-2.273-0.055-2.473-0.055c-0.068,0-0.105,0.055-0.105,0.18v4.98c0,0.123,0.016,0.18,0.105,0.18
		c0.234,0,2.455,0,2.869-0.035c0.434-0.041,0.689-0.074,0.854-0.254c0.123-0.145,0.199-0.234,0.27-0.234
		c0.053,0,0.09,0.035,0.09,0.145c0,0.105-0.09,0.412-0.145,1.008c-0.039,0.363-0.074,1.031-0.074,1.154c0,0.145,0,0.346-0.125,0.346
		c-0.09,0-0.123-0.074-0.123-0.164c0-0.182,0-0.361-0.074-0.593c-0.068-0.256-0.232-0.562-0.938-0.633
		c-0.484-0.055-2.275-0.09-2.578-0.09c-0.09,0-0.123,0.053-0.123,0.123v1.59c0,0.615-0.021,2.705,0,3.086
		c0.049,1.242,0.324,1.477,2.09,1.477c0.467,0,1.262,0,1.734-0.201c0.463-0.195,0.684-0.557,0.807-1.295
		c0.041-0.201,0.074-0.273,0.164-0.273c0.105,0,0.105,0.146,0.105,0.273c0,0.145-0.139,1.373-0.229,1.75
		c-0.129,0.467-0.275,0.467-0.977,0.467c-1.352,0-2.344-0.039-3.047-0.053c-0.707-0.037-1.137-0.053-1.41-0.053
		c-0.035,0-0.34,0-0.719,0.02c-0.359,0-0.777,0.035-1.045,0.035c-0.199,0-0.291-0.035-0.291-0.145c0-0.055,0.037-0.109,0.145-0.109
		c0.164,0,0.379-0.035,0.543-0.07c0.359-0.07,0.449-0.469,0.52-0.992c0.094-0.758,0.094-2.184,0.094-3.914v-3.18H118.793z"/>
</g>
</svg>
