
<svg version="1.1" id="logo" xmlns="http://www.w3.org/2000/svg" xmlns:xlink="http://www.w3.org/1999/xlink" x="0px" y="0px"
	 viewBox="-157 374.2 305 92.7" style="enable-background:new -157 374.2 305 92.7;" xml:space="preserve">
<style type="text/css">
	.st0{fill:#FFFFFF;}
</style>
<g>
	<polygon class="st0" points="-148,438 -148,465.2 -157,465.2 -157,374.2 -148,374.2 -148,433.3 -129.3,407.1 -118.8,407.1
		-139.4,435.5 -116.7,465.2 -127.4,465.2 	"/>
	<path class="st0" d="M-103.9,465.2h-9v-41.4c0-13.3,9-16.7,16.9-16.7h3.5v8.5h-3.5c-6,0-8,3.8-8,8.3
		C-103.9,423.8-103.9,465.2-103.9,465.2z"/>
	<path class="st0" d="M-30.8,465.2h-9v-7.5c-5.5,5.5-13.1,8.9-21.4,8.9c-16.8,0-30.5-13.5-30.5-30.5c0-16.8,13.5-30.4,30.5-30.4
		c16.8,0,30.4,13.5,30.4,30.4V465.2z M-61.2,414.1c-11.9,0-21.4,9.3-21.4,22c0,12.8,9.7,22,21.4,22c11.9,0,21.4-9.3,21.4-22
		S-49.4,414.1-61.2,414.1"/>
	<path class="st0" d="M-17,385.4c3,0,5.5,2.5,5.5,5.5c0,3-2.5,5.5-5.5,5.5s-5.5-2.5-5.5-5.5C-22.5,387.9-20,385.4-17,385.4
		 M-21.5,407.1h9v58.2h-9V407.1z"/>
	<rect x="-3.1" y="374.2" class="st0" width="9" height="91"/>
	<rect x="15.4" y="374.2" class="st0" width="9" height="91"/>
	<path class="st0" d="M85,440.3H41.7c1.8,10.6,10.4,17.8,21.2,17.8c14.9,0,19.4-12.5,19.4-12.5h9.5c0,0-5.9,20.9-29,20.9
		c-17.1,0-30.5-13.5-30.5-30.5c0-17.1,13.5-30.4,30.5-30.4c18,0,29.8,14.4,29.8,27.3C92.7,437.6,89.9,440.3,85,440.3 M84.2,432.1
		c-1.8-10.6-10.2-17.9-21.2-17.9c-10.6,0-19.4,7.2-21.2,17.9H84.2z"/>
	<path class="st0" d="M109.6,465.2h-9v-41.4c0-13.3,9-16.7,16.9-16.7h3.5v8.5h-3.5c-6,0-8,3.8-8,8.3V465.2z"/>
</g>
<g>
	<path class="st0" d="M140.3,421.6c-1.6,1.6-3.6,2.5-5.9,2.5c-2.3,0-4.3-0.8-5.9-2.5c-1.6-1.6-2.4-3.6-2.4-6c0-2.3,0.8-4.3,2.5-5.9
		c1.6-1.6,3.6-2.4,5.9-2.4c2.3,0,4.3,0.8,5.9,2.4c1.6,1.6,2.5,3.6,2.5,5.9C142.7,418,141.9,420,140.3,421.6z M129.2,410.6
		c-1.4,1.4-2.1,3.1-2.1,5.1c0,2,0.7,3.7,2.1,5.1c1.4,1.4,3.1,2.1,5.1,2.1c2,0,3.7-0.7,5.1-2.1c1.4-1.4,2.1-3.1,2.1-5.1
		c0-2-0.7-3.7-2.1-5.1c-1.4-1.4-3.1-2.1-5.1-2.1C132.3,408.4,130.6,409.1,129.2,410.6z M134.2,411c1.1,0,2,0.1,2.5,0.3
		c1,0.4,1.4,1.2,1.4,2.3c0,0.8-0.3,1.4-0.9,1.8c-0.3,0.2-0.8,0.4-1.3,0.4c0.7,0.1,1.2,0.4,1.6,0.9c0.3,0.5,0.5,1,0.5,1.4v0.7
		c0,0.2,0,0.4,0,0.7c0,0.2,0,0.4,0.1,0.5l0.1,0.1h-1.5c0,0,0-0.1,0-0.1c0,0,0-0.1,0-0.1l0-0.3V419c0-1.1-0.3-1.8-0.9-2.1
		c-0.3-0.2-0.9-0.3-1.8-0.3h-1.3v3.6h-1.6V411H134.2z M135.9,412.5c-0.4-0.2-1.1-0.3-2-0.3h-1.4v3.3h1.5c0.7,0,1.2-0.1,1.5-0.2
		c0.6-0.3,1-0.7,1-1.4C136.5,413.2,136.3,412.7,135.9,412.5z"/>
</g>
</svg>
